<mxfile host="app.diagrams.net" agent="Mozilla/5.0 (Windows NT 10.0; Win64; x64) AppleWebKit/537.36 (KHTML, like Gecko) Chrome/131.0.0.0 Safari/537.36" version="25.0.3">
  <diagram name="Page-1" id="E_d6SNuzFnSDlTJf4Jio">
    <mxGraphModel dx="2868" dy="1492" grid="1" gridSize="10" guides="1" tooltips="1" connect="1" arrows="1" fold="1" page="1" pageScale="1" pageWidth="850" pageHeight="1100" math="0" shadow="0">
      <root>
        <mxCell id="0" />
        <mxCell id="1" parent="0" />
        <mxCell id="i4o2ZJ1X1fqNZL82Gns1-7" style="edgeStyle=orthogonalEdgeStyle;rounded=0;orthogonalLoop=1;jettySize=auto;html=1;entryX=0.5;entryY=0;entryDx=0;entryDy=0;" edge="1" parent="1" source="i4o2ZJ1X1fqNZL82Gns1-1" target="i4o2ZJ1X1fqNZL82Gns1-3">
          <mxGeometry relative="1" as="geometry" />
        </mxCell>
        <mxCell id="i4o2ZJ1X1fqNZL82Gns1-1" value="&lt;font style=&quot;font-size: 24px;&quot;&gt;start&lt;/font&gt;" style="strokeWidth=2;html=1;shape=mxgraph.flowchart.start_1;whiteSpace=wrap;" vertex="1" parent="1">
          <mxGeometry x="375" y="40" width="100" height="60" as="geometry" />
        </mxCell>
        <mxCell id="i4o2ZJ1X1fqNZL82Gns1-2" value="&lt;font style=&quot;font-size: 24px;&quot;&gt;end&lt;/font&gt;" style="strokeWidth=2;html=1;shape=mxgraph.flowchart.start_1;whiteSpace=wrap;" vertex="1" parent="1">
          <mxGeometry x="375" y="720" width="100" height="60" as="geometry" />
        </mxCell>
        <mxCell id="i4o2ZJ1X1fqNZL82Gns1-12" style="edgeStyle=orthogonalEdgeStyle;rounded=0;orthogonalLoop=1;jettySize=auto;html=1;exitX=0.5;exitY=1;exitDx=0;exitDy=0;entryX=0.5;entryY=0;entryDx=0;entryDy=0;" edge="1" parent="1" source="i4o2ZJ1X1fqNZL82Gns1-3" target="i4o2ZJ1X1fqNZL82Gns1-11">
          <mxGeometry relative="1" as="geometry" />
        </mxCell>
        <mxCell id="i4o2ZJ1X1fqNZL82Gns1-3" value="*file = fopen(a15-5.txt)" style="rounded=1;whiteSpace=wrap;html=1;absoluteArcSize=1;arcSize=14;strokeWidth=2;" vertex="1" parent="1">
          <mxGeometry x="363" y="160" width="125" height="70" as="geometry" />
        </mxCell>
        <mxCell id="i4o2ZJ1X1fqNZL82Gns1-14" style="edgeStyle=orthogonalEdgeStyle;rounded=0;orthogonalLoop=1;jettySize=auto;html=1;entryX=0.5;entryY=0;entryDx=0;entryDy=0;" edge="1" parent="1" source="i4o2ZJ1X1fqNZL82Gns1-4" target="i4o2ZJ1X1fqNZL82Gns1-6">
          <mxGeometry relative="1" as="geometry" />
        </mxCell>
        <mxCell id="i4o2ZJ1X1fqNZL82Gns1-4" value="average = calculateAverageAge(people, count)" style="rounded=1;whiteSpace=wrap;html=1;absoluteArcSize=1;arcSize=14;strokeWidth=2;" vertex="1" parent="1">
          <mxGeometry x="363" y="420" width="125" height="70" as="geometry" />
        </mxCell>
        <mxCell id="i4o2ZJ1X1fqNZL82Gns1-15" style="edgeStyle=orthogonalEdgeStyle;rounded=0;orthogonalLoop=1;jettySize=auto;html=1;" edge="1" parent="1" source="i4o2ZJ1X1fqNZL82Gns1-6" target="i4o2ZJ1X1fqNZL82Gns1-2">
          <mxGeometry relative="1" as="geometry" />
        </mxCell>
        <mxCell id="i4o2ZJ1X1fqNZL82Gns1-6" value="printAboveAverageAge(people, count, average)" style="verticalLabelPosition=bottom;verticalAlign=top;html=1;shape=process;whiteSpace=wrap;rounded=1;size=0.14;arcSize=6;" vertex="1" parent="1">
          <mxGeometry x="375.5" y="560" width="100" height="60" as="geometry" />
        </mxCell>
        <mxCell id="i4o2ZJ1X1fqNZL82Gns1-13" style="edgeStyle=orthogonalEdgeStyle;rounded=0;orthogonalLoop=1;jettySize=auto;html=1;entryX=0.5;entryY=0;entryDx=0;entryDy=0;" edge="1" parent="1" source="i4o2ZJ1X1fqNZL82Gns1-11" target="i4o2ZJ1X1fqNZL82Gns1-4">
          <mxGeometry relative="1" as="geometry" />
        </mxCell>
        <mxCell id="i4o2ZJ1X1fqNZL82Gns1-11" value="readData(file, people, &amp;amp;count)" style="verticalLabelPosition=bottom;verticalAlign=top;html=1;shape=process;whiteSpace=wrap;rounded=1;size=0.14;arcSize=6;" vertex="1" parent="1">
          <mxGeometry x="375.5" y="290" width="100" height="60" as="geometry" />
        </mxCell>
        <mxCell id="i4o2ZJ1X1fqNZL82Gns1-23" style="edgeStyle=orthogonalEdgeStyle;rounded=0;orthogonalLoop=1;jettySize=auto;html=1;entryX=0.5;entryY=0;entryDx=0;entryDy=0;" edge="1" parent="1" source="i4o2ZJ1X1fqNZL82Gns1-17" target="i4o2ZJ1X1fqNZL82Gns1-21">
          <mxGeometry relative="1" as="geometry" />
        </mxCell>
        <mxCell id="i4o2ZJ1X1fqNZL82Gns1-17" value="&lt;font style=&quot;font-size: 20px;&quot;&gt;readData(*file, people, *count)&lt;/font&gt;" style="strokeWidth=2;html=1;shape=mxgraph.flowchart.start_1;whiteSpace=wrap;" vertex="1" parent="1">
          <mxGeometry x="705" y="40" width="190" height="90" as="geometry" />
        </mxCell>
        <mxCell id="i4o2ZJ1X1fqNZL82Gns1-18" value="&lt;font style=&quot;font-size: 24px;&quot;&gt;end&lt;/font&gt;" style="strokeWidth=2;html=1;shape=mxgraph.flowchart.start_1;whiteSpace=wrap;" vertex="1" parent="1">
          <mxGeometry x="750" y="720" width="100" height="60" as="geometry" />
        </mxCell>
        <mxCell id="i4o2ZJ1X1fqNZL82Gns1-25" style="edgeStyle=orthogonalEdgeStyle;rounded=0;orthogonalLoop=1;jettySize=auto;html=1;entryX=0.5;entryY=0;entryDx=0;entryDy=0;" edge="1" parent="1" source="i4o2ZJ1X1fqNZL82Gns1-21" target="i4o2ZJ1X1fqNZL82Gns1-24">
          <mxGeometry relative="1" as="geometry" />
        </mxCell>
        <mxCell id="i4o2ZJ1X1fqNZL82Gns1-21" value="while(fgets(line, line, file)" style="rhombus;whiteSpace=wrap;html=1;" vertex="1" parent="1">
          <mxGeometry x="692.5" y="160" width="215" height="140" as="geometry" />
        </mxCell>
        <mxCell id="i4o2ZJ1X1fqNZL82Gns1-32" style="edgeStyle=orthogonalEdgeStyle;rounded=0;orthogonalLoop=1;jettySize=auto;html=1;entryX=0;entryY=0.5;entryDx=0;entryDy=0;" edge="1" parent="1" source="i4o2ZJ1X1fqNZL82Gns1-24" target="i4o2ZJ1X1fqNZL82Gns1-26">
          <mxGeometry relative="1" as="geometry" />
        </mxCell>
        <mxCell id="i4o2ZJ1X1fqNZL82Gns1-24" value="sscanf(line, name, &amp;amp;age, &amp;amp;salary) == 3" style="rhombus;whiteSpace=wrap;html=1;" vertex="1" parent="1">
          <mxGeometry x="675" y="370" width="250" height="160" as="geometry" />
        </mxCell>
        <mxCell id="i4o2ZJ1X1fqNZL82Gns1-33" style="edgeStyle=orthogonalEdgeStyle;rounded=0;orthogonalLoop=1;jettySize=auto;html=1;entryX=0.5;entryY=0;entryDx=0;entryDy=0;" edge="1" parent="1" source="i4o2ZJ1X1fqNZL82Gns1-26" target="i4o2ZJ1X1fqNZL82Gns1-29">
          <mxGeometry relative="1" as="geometry" />
        </mxCell>
        <mxCell id="i4o2ZJ1X1fqNZL82Gns1-26" value="strcpy(people[*cound].name, name" style="rounded=1;whiteSpace=wrap;html=1;absoluteArcSize=1;arcSize=14;strokeWidth=2;" vertex="1" parent="1">
          <mxGeometry x="1010" y="412.5" width="200" height="75" as="geometry" />
        </mxCell>
        <mxCell id="i4o2ZJ1X1fqNZL82Gns1-34" style="edgeStyle=orthogonalEdgeStyle;rounded=0;orthogonalLoop=1;jettySize=auto;html=1;entryX=0.5;entryY=0;entryDx=0;entryDy=0;" edge="1" parent="1" source="i4o2ZJ1X1fqNZL82Gns1-29" target="i4o2ZJ1X1fqNZL82Gns1-30">
          <mxGeometry relative="1" as="geometry" />
        </mxCell>
        <mxCell id="i4o2ZJ1X1fqNZL82Gns1-29" value="people[*count].age = age" style="rounded=1;whiteSpace=wrap;html=1;absoluteArcSize=1;arcSize=14;strokeWidth=2;" vertex="1" parent="1">
          <mxGeometry x="1010" y="530" width="200" height="75" as="geometry" />
        </mxCell>
        <mxCell id="i4o2ZJ1X1fqNZL82Gns1-35" style="edgeStyle=orthogonalEdgeStyle;rounded=0;orthogonalLoop=1;jettySize=auto;html=1;" edge="1" parent="1" source="i4o2ZJ1X1fqNZL82Gns1-30" target="i4o2ZJ1X1fqNZL82Gns1-31">
          <mxGeometry relative="1" as="geometry" />
        </mxCell>
        <mxCell id="i4o2ZJ1X1fqNZL82Gns1-30" value="people[*count].salary = salary" style="rounded=1;whiteSpace=wrap;html=1;absoluteArcSize=1;arcSize=14;strokeWidth=2;" vertex="1" parent="1">
          <mxGeometry x="1010" y="640" width="200" height="75" as="geometry" />
        </mxCell>
        <mxCell id="i4o2ZJ1X1fqNZL82Gns1-36" style="edgeStyle=orthogonalEdgeStyle;rounded=0;orthogonalLoop=1;jettySize=auto;html=1;entryX=1;entryY=1;entryDx=0;entryDy=0;" edge="1" parent="1" source="i4o2ZJ1X1fqNZL82Gns1-31" target="i4o2ZJ1X1fqNZL82Gns1-24">
          <mxGeometry relative="1" as="geometry" />
        </mxCell>
        <mxCell id="i4o2ZJ1X1fqNZL82Gns1-31" value="(*count)++" style="rounded=1;whiteSpace=wrap;html=1;absoluteArcSize=1;arcSize=14;strokeWidth=2;" vertex="1" parent="1">
          <mxGeometry x="1010" y="760" width="200" height="75" as="geometry" />
        </mxCell>
        <mxCell id="i4o2ZJ1X1fqNZL82Gns1-37" style="edgeStyle=orthogonalEdgeStyle;rounded=0;orthogonalLoop=1;jettySize=auto;html=1;entryX=0.5;entryY=0;entryDx=0;entryDy=0;entryPerimeter=0;" edge="1" parent="1" source="i4o2ZJ1X1fqNZL82Gns1-24" target="i4o2ZJ1X1fqNZL82Gns1-18">
          <mxGeometry relative="1" as="geometry" />
        </mxCell>
        <mxCell id="i4o2ZJ1X1fqNZL82Gns1-45" style="edgeStyle=orthogonalEdgeStyle;rounded=0;orthogonalLoop=1;jettySize=auto;html=1;entryX=0.5;entryY=0;entryDx=0;entryDy=0;" edge="1" parent="1" source="i4o2ZJ1X1fqNZL82Gns1-40" target="i4o2ZJ1X1fqNZL82Gns1-42">
          <mxGeometry relative="1" as="geometry" />
        </mxCell>
        <mxCell id="i4o2ZJ1X1fqNZL82Gns1-40" value="&lt;font style=&quot;font-size: 20px;&quot;&gt;calculateAverageAge(people, count)&lt;/font&gt;" style="strokeWidth=2;html=1;shape=mxgraph.flowchart.start_1;whiteSpace=wrap;" vertex="1" parent="1">
          <mxGeometry x="1310" y="40" width="300" height="120" as="geometry" />
        </mxCell>
        <mxCell id="i4o2ZJ1X1fqNZL82Gns1-41" value="&lt;font style=&quot;font-size: 16px;&quot;&gt;return (double)totalAge/count&lt;/font&gt;" style="strokeWidth=2;html=1;shape=mxgraph.flowchart.start_1;whiteSpace=wrap;" vertex="1" parent="1">
          <mxGeometry x="1350" y="510" width="220" height="80" as="geometry" />
        </mxCell>
        <mxCell id="i4o2ZJ1X1fqNZL82Gns1-46" style="edgeStyle=orthogonalEdgeStyle;rounded=0;orthogonalLoop=1;jettySize=auto;html=1;entryX=0.5;entryY=0;entryDx=0;entryDy=0;" edge="1" parent="1" source="i4o2ZJ1X1fqNZL82Gns1-42" target="i4o2ZJ1X1fqNZL82Gns1-43">
          <mxGeometry relative="1" as="geometry" />
        </mxCell>
        <mxCell id="i4o2ZJ1X1fqNZL82Gns1-42" value="for i &amp;lt; count, i++" style="rhombus;whiteSpace=wrap;html=1;" vertex="1" parent="1">
          <mxGeometry x="1352.5" y="200" width="215" height="140" as="geometry" />
        </mxCell>
        <mxCell id="i4o2ZJ1X1fqNZL82Gns1-43" value="totalAge = people[i].age" style="rounded=1;whiteSpace=wrap;html=1;absoluteArcSize=1;arcSize=14;strokeWidth=2;" vertex="1" parent="1">
          <mxGeometry x="1360" y="390" width="200" height="75" as="geometry" />
        </mxCell>
        <mxCell id="i4o2ZJ1X1fqNZL82Gns1-47" style="edgeStyle=orthogonalEdgeStyle;rounded=0;orthogonalLoop=1;jettySize=auto;html=1;entryX=0.5;entryY=0;entryDx=0;entryDy=0;entryPerimeter=0;" edge="1" parent="1" source="i4o2ZJ1X1fqNZL82Gns1-43" target="i4o2ZJ1X1fqNZL82Gns1-41">
          <mxGeometry relative="1" as="geometry" />
        </mxCell>
        <mxCell id="i4o2ZJ1X1fqNZL82Gns1-48" value="&lt;font style=&quot;font-size: 20px;&quot;&gt;compareByAge(*a, *b)&lt;/font&gt;" style="strokeWidth=2;html=1;shape=mxgraph.flowchart.start_1;whiteSpace=wrap;" vertex="1" parent="1">
          <mxGeometry x="1730" y="55" width="190" height="90" as="geometry" />
        </mxCell>
        <mxCell id="i4o2ZJ1X1fqNZL82Gns1-49" value="&lt;font style=&quot;font-size: 16px;&quot;&gt;return ((Person *)b -&amp;gt;age - ((Person *)a) -&amp;gt; age&lt;/font&gt;" style="strokeWidth=2;html=1;shape=mxgraph.flowchart.start_1;whiteSpace=wrap;" vertex="1" parent="1">
          <mxGeometry x="1715" y="260" width="220" height="80" as="geometry" />
        </mxCell>
        <mxCell id="i4o2ZJ1X1fqNZL82Gns1-50" style="edgeStyle=orthogonalEdgeStyle;rounded=0;orthogonalLoop=1;jettySize=auto;html=1;entryX=0.5;entryY=0;entryDx=0;entryDy=0;entryPerimeter=0;" edge="1" parent="1" source="i4o2ZJ1X1fqNZL82Gns1-48" target="i4o2ZJ1X1fqNZL82Gns1-49">
          <mxGeometry relative="1" as="geometry" />
        </mxCell>
        <mxCell id="i4o2ZJ1X1fqNZL82Gns1-63" style="edgeStyle=orthogonalEdgeStyle;rounded=0;orthogonalLoop=1;jettySize=auto;html=1;" edge="1" parent="1" source="i4o2ZJ1X1fqNZL82Gns1-51" target="i4o2ZJ1X1fqNZL82Gns1-52">
          <mxGeometry relative="1" as="geometry" />
        </mxCell>
        <mxCell id="i4o2ZJ1X1fqNZL82Gns1-51" value="&lt;font style=&quot;font-size: 20px;&quot;&gt;printAboveAverageAge(people, count, averageAge)&lt;/font&gt;" style="strokeWidth=2;html=1;shape=mxgraph.flowchart.start_1;whiteSpace=wrap;" vertex="1" parent="1">
          <mxGeometry x="2070" y="40" width="300" height="120" as="geometry" />
        </mxCell>
        <mxCell id="i4o2ZJ1X1fqNZL82Gns1-64" style="edgeStyle=orthogonalEdgeStyle;rounded=0;orthogonalLoop=1;jettySize=auto;html=1;entryX=0.5;entryY=0;entryDx=0;entryDy=0;" edge="1" parent="1" source="i4o2ZJ1X1fqNZL82Gns1-52" target="i4o2ZJ1X1fqNZL82Gns1-53">
          <mxGeometry relative="1" as="geometry" />
        </mxCell>
        <mxCell id="i4o2ZJ1X1fqNZL82Gns1-52" value="qsort(people, count, person), compareByAge)" style="rounded=1;whiteSpace=wrap;html=1;absoluteArcSize=1;arcSize=14;strokeWidth=2;" vertex="1" parent="1">
          <mxGeometry x="2120" y="210" width="200" height="75" as="geometry" />
        </mxCell>
        <mxCell id="i4o2ZJ1X1fqNZL82Gns1-65" style="edgeStyle=orthogonalEdgeStyle;rounded=0;orthogonalLoop=1;jettySize=auto;html=1;entryX=0.5;entryY=0;entryDx=0;entryDy=0;" edge="1" parent="1" source="i4o2ZJ1X1fqNZL82Gns1-53" target="i4o2ZJ1X1fqNZL82Gns1-54">
          <mxGeometry relative="1" as="geometry" />
        </mxCell>
        <mxCell id="i4o2ZJ1X1fqNZL82Gns1-53" value="output&lt;br&gt;&quot;People with age above average&quot; averageAge &quot;Years&quot;" style="shape=parallelogram;perimeter=parallelogramPerimeter;whiteSpace=wrap;html=1;fixedSize=1;" vertex="1" parent="1">
          <mxGeometry x="2110" y="330" width="220" height="70" as="geometry" />
        </mxCell>
        <mxCell id="i4o2ZJ1X1fqNZL82Gns1-57" style="edgeStyle=orthogonalEdgeStyle;rounded=0;orthogonalLoop=1;jettySize=auto;html=1;entryX=0.5;entryY=0;entryDx=0;entryDy=0;" edge="1" parent="1" source="i4o2ZJ1X1fqNZL82Gns1-54" target="i4o2ZJ1X1fqNZL82Gns1-55">
          <mxGeometry relative="1" as="geometry" />
        </mxCell>
        <mxCell id="i4o2ZJ1X1fqNZL82Gns1-54" value="for i &amp;lt; count, i++" style="rhombus;whiteSpace=wrap;html=1;" vertex="1" parent="1">
          <mxGeometry x="2112.5" y="440" width="215" height="140" as="geometry" />
        </mxCell>
        <mxCell id="i4o2ZJ1X1fqNZL82Gns1-59" style="edgeStyle=orthogonalEdgeStyle;rounded=0;orthogonalLoop=1;jettySize=auto;html=1;entryX=0.5;entryY=0;entryDx=0;entryDy=0;" edge="1" parent="1" source="i4o2ZJ1X1fqNZL82Gns1-55" target="i4o2ZJ1X1fqNZL82Gns1-58">
          <mxGeometry relative="1" as="geometry" />
        </mxCell>
        <mxCell id="i4o2ZJ1X1fqNZL82Gns1-55" value="people[i].age &amp;gt; averageAge" style="rhombus;whiteSpace=wrap;html=1;" vertex="1" parent="1">
          <mxGeometry x="2390" y="540" width="215" height="140" as="geometry" />
        </mxCell>
        <mxCell id="i4o2ZJ1X1fqNZL82Gns1-60" style="edgeStyle=orthogonalEdgeStyle;rounded=0;orthogonalLoop=1;jettySize=auto;html=1;entryX=1;entryY=1;entryDx=0;entryDy=0;" edge="1" parent="1" source="i4o2ZJ1X1fqNZL82Gns1-58" target="i4o2ZJ1X1fqNZL82Gns1-54">
          <mxGeometry relative="1" as="geometry" />
        </mxCell>
        <mxCell id="i4o2ZJ1X1fqNZL82Gns1-58" value="output&lt;div&gt;&quot;Name:&quot; people[i].name&lt;br&gt;&quot;Age:&quot; people[i].age&lt;br&gt;&quot;salary:&quot; people[i].salary &quot;Bath&quot;&lt;/div&gt;" style="shape=parallelogram;perimeter=parallelogramPerimeter;whiteSpace=wrap;html=1;fixedSize=1;" vertex="1" parent="1">
          <mxGeometry x="2387.5" y="730" width="220" height="70" as="geometry" />
        </mxCell>
        <mxCell id="i4o2ZJ1X1fqNZL82Gns1-61" value="&lt;font style=&quot;font-size: 24px;&quot;&gt;end&lt;/font&gt;" style="strokeWidth=2;html=1;shape=mxgraph.flowchart.start_1;whiteSpace=wrap;" vertex="1" parent="1">
          <mxGeometry x="2170" y="800" width="100" height="60" as="geometry" />
        </mxCell>
        <mxCell id="i4o2ZJ1X1fqNZL82Gns1-62" style="edgeStyle=orthogonalEdgeStyle;rounded=0;orthogonalLoop=1;jettySize=auto;html=1;entryX=0.5;entryY=0;entryDx=0;entryDy=0;entryPerimeter=0;" edge="1" parent="1" source="i4o2ZJ1X1fqNZL82Gns1-54" target="i4o2ZJ1X1fqNZL82Gns1-61">
          <mxGeometry relative="1" as="geometry" />
        </mxCell>
      </root>
    </mxGraphModel>
  </diagram>
</mxfile>
